<svg version="1.1" viewBox="-405.000 0.000 810.000 430.000" xmlns="http://www.w3.org/2000/svg">
  <style>polygon {fill: #fc60a8ff; stroke: white; stroke-width: 2.0;}</style>
  <polygon points="-374.193,255.971 -405.000,278.088 -375.442,297.537"/>
  <polygon points="376.830,220.104 377.749,264.065 405.000,239.171"/>
  <polygon points="170.000,30.000 198.798,55.684 200.000,0.000"/>
  <polygon points="-376.822,218.347 -374.193,255.971 -341.079,231.876"/>
  <polygon points="-405.000,278.088 -405.000,320.000 -375.442,297.537"/>
  <polygon points="80.544,273.589 50.000,293.371 85.880,310.315"/>
  <polygon points="115.168,291.788 80.544,273.589 85.880,310.315"/>
  <polygon points="52.282,195.000 50.000,240.000 78.862,228.524"/>
  <polygon points="16.279,195.000 50.000,240.000 52.282,195.000"/>
  <polygon points="50.000,240.000 80.544,273.589 78.862,228.524"/>
  <polygon points="377.749,264.065 342.756,281.629 373.243,302.856"/>
  <polygon points="342.756,281.629 377.749,264.065 352.078,246.690"/>
  <polygon points="377.749,264.065 405.000,281.321 405.000,239.171"/>
  <polygon points="405.000,281.321 373.243,302.856 405.000,320.000"/>
  <polygon points="405.000,281.321 377.749,264.065 373.243,302.856"/>
  <polygon points="234.501,32.818 198.798,55.684 228.444,82.126"/>
  <polygon points="267.549,64.254 234.501,32.818 228.444,82.126"/>
  <polygon points="198.798,55.684 234.501,32.818 200.000,0.000"/>
  <polygon points="259.994,228.963 241.417,195.000 224.261,229.153"/>
  <polygon points="295.832,227.198 332.979,222.412 315.055,195.000"/>
  <polygon points="332.979,222.412 355.000,195.000 315.055,195.000"/>
  <polygon points="355.000,195.000 376.830,220.104 405.000,195.000"/>
  <polygon points="376.830,220.104 405.000,239.171 405.000,195.000"/>
  <polygon points="376.830,220.104 377.749,264.065 352.078,246.690"/>
  <polygon points="376.830,220.104 332.979,222.412 352.078,246.690"/>
  <polygon points="332.979,222.412 376.830,220.104 355.000,195.000"/>
  <polygon points="364.832,156.792 355.000,195.000 405.000,195.000"/>
  <polygon points="-405.000,237.103 -405.000,278.088 -374.193,255.971"/>
  <polygon points="-376.822,218.347 -405.000,237.103 -374.193,255.971"/>
  <polygon points="-405.000,237.103 -376.822,218.347 -405.000,195.000"/>
  <polygon points="-345.517,273.435 -374.193,255.971 -375.442,297.537"/>
  <polygon points="-374.193,255.971 -345.517,273.435 -341.079,231.876"/>
  <polygon points="399.800,353.421 367.085,340.808 384.784,383.551"/>
  <polygon points="373.243,302.856 367.085,340.808 405.000,320.000"/>
  <polygon points="367.085,340.808 399.800,353.421 405.000,320.000"/>
  <polygon points="241.982,396.729 279.938,396.555 257.461,364.723"/>
  <polygon points="295.000,430.000 317.920,391.596 279.938,396.555"/>
  <polygon points="183.900,361.793 202.306,329.045 164.171,328.941"/>
  <polygon points="145.792,360.570 183.900,361.793 164.171,328.941"/>
  <polygon points="145.792,360.570 108.196,370.382 133.870,394.137"/>
  <polygon points="169.273,394.961 145.792,360.570 133.870,394.137"/>
  <polygon points="145.792,360.570 169.273,394.961 183.900,361.793"/>
  <polygon points="317.920,391.596 328.542,424.761 358.743,409.649"/>
  <polygon points="328.542,424.761 317.920,391.596 295.000,430.000"/>
  <polygon points="294.347,362.433 271.947,332.306 257.461,364.723"/>
  <polygon points="279.938,396.555 294.347,362.433 257.461,364.723"/>
  <polygon points="294.347,362.433 317.920,391.596 328.287,351.354"/>
  <polygon points="317.920,391.596 294.347,362.433 279.938,396.555"/>
  <polygon points="265.549,297.176 303.025,324.437 304.691,290.794"/>
  <polygon points="303.025,324.437 265.549,297.176 271.947,332.306"/>
  <polygon points="303.025,324.437 294.347,362.433 328.287,351.354"/>
  <polygon points="294.347,362.433 303.025,324.437 271.947,332.306"/>
  <polygon points="50.000,293.371 50.000,320.000 85.880,310.315"/>
  <polygon points="150.016,296.719 171.474,262.795 137.128,260.959"/>
  <polygon points="115.168,291.788 150.016,296.719 137.128,260.959"/>
  <polygon points="104.376,255.066 115.168,291.788 137.128,260.959"/>
  <polygon points="115.168,291.788 104.376,255.066 80.544,273.589"/>
  <polygon points="80.544,273.589 104.376,255.066 78.862,228.524"/>
  <polygon points="-198.798,55.684 -170.000,30.000 -200.000,0.000"/>
  <polygon points="-234.501,32.818 -198.798,55.684 -200.000,0.000"/>
  <polygon points="80.544,273.589 50.000,265.606 50.000,293.371"/>
  <polygon points="50.000,240.000 50.000,265.606 80.544,273.589"/>
  <polygon points="342.756,281.629 337.992,316.135 373.243,302.856"/>
  <polygon points="337.992,316.135 367.085,340.808 373.243,302.856"/>
  <polygon points="367.085,340.808 337.992,316.135 328.287,351.354"/>
  <polygon points="337.992,316.135 303.025,324.437 328.287,351.354"/>
  <polygon points="337.992,316.135 342.756,281.629 304.691,290.794"/>
  <polygon points="303.025,324.437 337.992,316.135 304.691,290.794"/>
  <polygon points="90.727,195.000 52.282,195.000 78.862,228.524"/>
  <polygon points="277.947,195.000 295.832,227.198 315.055,195.000"/>
  <polygon points="259.994,228.963 277.947,195.000 241.417,195.000"/>
  <polygon points="277.947,195.000 259.994,228.963 295.832,227.198"/>
  <polygon points="259.177,109.536 290.912,137.840 299.844,94.974"/>
  <polygon points="267.549,64.254 259.177,109.536 299.844,94.974"/>
  <polygon points="259.177,109.536 267.549,64.254 228.444,82.126"/>
  <polygon points="316.547,256.396 332.979,222.412 295.832,227.198"/>
  <polygon points="342.756,281.629 316.547,256.396 304.691,290.794"/>
  <polygon points="316.547,256.396 342.756,281.629 352.078,246.690"/>
  <polygon points="332.979,222.412 316.547,256.396 352.078,246.690"/>
  <polygon points="290.912,137.840 332.105,125.661 299.844,94.974"/>
  <polygon points="-355.000,195.000 -376.822,218.347 -341.079,231.876"/>
  <polygon points="-376.822,218.347 -355.000,195.000 -405.000,195.000"/>
  <polygon points="-341.413,307.679 -345.517,273.435 -375.442,297.537"/>
  <polygon points="-348.936,368.784 -384.744,383.609 -360.398,408.448"/>
  <polygon points="-172.139,394.790 -160.000,430.000 -136.087,394.515"/>
  <polygon points="367.085,340.808 351.538,375.112 384.784,383.551"/>
  <polygon points="351.538,375.112 367.085,340.808 328.287,351.354"/>
  <polygon points="384.784,383.551 351.538,375.112 358.743,409.649"/>
  <polygon points="351.538,375.112 317.920,391.596 358.743,409.649"/>
  <polygon points="317.920,391.596 351.538,375.112 328.287,351.354"/>
  <polygon points="260.583,430.000 295.000,430.000 279.938,396.555"/>
  <polygon points="241.982,396.729 260.583,430.000 279.938,396.555"/>
  <polygon points="226.085,430.000 260.583,430.000 241.982,396.729"/>
  <polygon points="123.491,329.614 115.168,291.788 85.880,310.315"/>
  <polygon points="145.792,360.570 123.491,329.614 108.196,370.382"/>
  <polygon points="123.491,329.614 145.792,360.570 164.171,328.941"/>
  <polygon points="150.016,296.719 123.491,329.614 164.171,328.941"/>
  <polygon points="123.491,329.614 150.016,296.719 115.168,291.788"/>
  <polygon points="94.767,408.570 126.288,424.707 133.870,394.137"/>
  <polygon points="108.196,370.382 94.767,408.570 133.870,394.137"/>
  <polygon points="94.767,408.570 108.196,370.382 70.473,383.913"/>
  <polygon points="221.142,362.594 202.306,329.045 183.900,361.793"/>
  <polygon points="221.142,362.594 241.982,396.729 257.461,364.723"/>
  <polygon points="202.306,329.045 238.610,329.349 225.752,296.155"/>
  <polygon points="238.610,329.349 265.549,297.176 225.752,296.155"/>
  <polygon points="265.549,297.176 238.610,329.349 271.947,332.306"/>
  <polygon points="221.142,362.594 238.610,329.349 202.306,329.045"/>
  <polygon points="271.947,332.306 238.610,329.349 257.461,364.723"/>
  <polygon points="238.610,329.349 221.142,362.594 257.461,364.723"/>
  <polygon points="126.288,424.707 160.000,430.000 133.870,394.137"/>
  <polygon points="160.000,430.000 169.273,394.961 133.870,394.137"/>
  <polygon points="169.273,394.961 160.000,430.000 192.563,430.000"/>
  <polygon points="-261.312,430.000 -227.272,430.000 -246.063,395.416"/>
  <polygon points="-160.000,430.000 -125.895,424.579 -136.087,394.515"/>
  <polygon points="-125.895,424.579 -94.910,408.675 -136.087,394.515"/>
  <polygon points="259.994,228.963 280.108,262.033 295.832,227.198"/>
  <polygon points="280.108,262.033 265.549,297.176 304.691,290.794"/>
  <polygon points="316.547,256.396 280.108,262.033 304.691,290.794"/>
  <polygon points="280.108,262.033 316.547,256.396 295.832,227.198"/>
  <polygon points="150.016,296.719 187.489,296.217 171.474,262.795"/>
  <polygon points="187.489,296.217 202.306,329.045 225.752,296.155"/>
  <polygon points="202.306,329.045 187.489,296.217 164.171,328.941"/>
  <polygon points="187.489,296.217 150.016,296.719 164.171,328.941"/>
  <polygon points="207.430,262.900 187.489,296.217 225.752,296.155"/>
  <polygon points="187.489,296.217 207.430,262.900 171.474,262.795"/>
  <polygon points="115.942,224.652 104.376,255.066 137.128,260.959"/>
  <polygon points="104.376,255.066 115.942,224.652 78.862,228.524"/>
  <polygon points="115.942,224.652 90.727,195.000 78.862,228.524"/>
  <polygon points="90.727,195.000 115.942,224.652 130.616,195.000"/>
  <polygon points="-80.474,228.971 -55.729,195.000 -94.511,195.000"/>
  <polygon points="-227.158,362.095 -207.813,329.561 -247.237,329.637"/>
  <polygon points="-228.444,82.126 -198.798,55.684 -234.501,32.818"/>
  <polygon points="-282.495,263.551 -316.120,261.196 -306.308,297.610"/>
  <polygon points="-345.517,273.435 -306.308,297.610 -316.120,261.196"/>
  <polygon points="-345.517,273.435 -306.308,297.610 -341.413,307.679"/>
  <polygon points="-345.517,273.435 -316.120,261.196 -341.079,231.876"/>
  <polygon points="-266.977,297.205 -282.495,263.551 -306.308,297.610"/>
  <polygon points="-266.977,297.205 -286.859,329.885 -247.237,329.637"/>
  <polygon points="-286.859,329.885 -266.977,297.205 -306.308,297.610"/>
  <polygon points="-266.977,297.205 -246.545,263.360 -282.495,263.551"/>
  <polygon points="-0.198,239.551 50.000,240.000 16.279,195.000"/>
  <polygon points="-19.725,195.000 -0.198,239.551 16.279,195.000"/>
  <polygon points="188.128,228.799 207.430,262.900 224.261,229.153"/>
  <polygon points="207.430,262.900 188.128,228.799 171.474,262.795"/>
  <polygon points="188.128,228.799 204.787,195.000 167.868,195.000"/>
  <polygon points="241.417,195.000 204.787,195.000 224.261,229.153"/>
  <polygon points="204.787,195.000 188.128,228.799 224.261,229.153"/>
  <polygon points="323.031,166.487 332.105,125.661 290.912,137.840"/>
  <polygon points="332.105,125.661 323.031,166.487 364.832,156.792"/>
  <polygon points="364.832,156.792 323.031,166.487 355.000,195.000"/>
  <polygon points="-320.077,195.000 -355.000,195.000 -341.079,231.876"/>
  <polygon points="-299.844,94.974 -290.912,137.840 -259.177,109.536"/>
  <polygon points="-355.000,195.000 -364.832,156.792 -405.000,195.000"/>
  <polygon points="-364.832,156.792 -355.000,195.000 -323.031,166.487"/>
  <polygon points="-384.744,383.609 -367.267,336.660 -399.556,354.177"/>
  <polygon points="-348.936,368.784 -367.267,336.660 -384.744,383.609"/>
  <polygon points="-405.000,320.000 -367.267,336.660 -375.442,297.537"/>
  <polygon points="-367.267,336.660 -405.000,320.000 -399.556,354.177"/>
  <polygon points="-367.267,336.660 -341.413,307.679 -375.442,297.537"/>
  <polygon points="-265.789,362.340 -286.859,329.885 -304.084,363.734"/>
  <polygon points="-286.859,329.885 -265.789,362.340 -247.237,329.637"/>
  <polygon points="-265.789,362.340 -227.158,362.095 -247.237,329.637"/>
  <polygon points="-227.158,362.095 -265.789,362.340 -246.063,395.416"/>
  <polygon points="-286.859,329.885 -325.815,336.947 -304.084,363.734"/>
  <polygon points="-325.815,336.947 -348.936,368.784 -304.084,363.734"/>
  <polygon points="-341.413,307.679 -325.815,336.947 -306.308,297.610"/>
  <polygon points="-325.815,336.947 -286.859,329.885 -306.308,297.610"/>
  <polygon points="-367.267,336.660 -325.815,336.947 -341.413,307.679"/>
  <polygon points="-325.815,336.947 -367.267,336.660 -348.936,368.784"/>
  <polygon points="-208.950,395.267 -227.158,362.095 -246.063,395.416"/>
  <polygon points="-227.272,430.000 -208.950,395.267 -246.063,395.416"/>
  <polygon points="87.466,344.106 123.491,329.614 85.880,310.315"/>
  <polygon points="123.491,329.614 87.466,344.106 108.196,370.382"/>
  <polygon points="50.000,320.000 87.466,344.106 85.880,310.315"/>
  <polygon points="87.466,344.106 50.000,320.000 55.277,353.660"/>
  <polygon points="87.466,344.106 55.277,353.660 70.473,383.913"/>
  <polygon points="108.196,370.382 87.466,344.106 70.473,383.913"/>
  <polygon points="169.273,394.961 205.416,395.591 183.900,361.793"/>
  <polygon points="205.416,395.591 221.142,362.594 183.900,361.793"/>
  <polygon points="205.416,395.591 169.273,394.961 192.563,430.000"/>
  <polygon points="221.142,362.594 205.416,395.591 241.982,396.729"/>
  <polygon points="226.085,430.000 205.416,395.591 192.563,430.000"/>
  <polygon points="205.416,395.591 226.085,430.000 241.982,396.729"/>
  <polygon points="-295.000,430.000 -321.778,393.355 -328.773,424.687"/>
  <polygon points="-348.936,368.784 -321.778,393.355 -304.084,363.734"/>
  <polygon points="-321.778,393.355 -360.398,408.448 -328.773,424.687"/>
  <polygon points="-321.778,393.355 -348.936,368.784 -360.398,408.448"/>
  <polygon points="244.089,263.637 280.108,262.033 259.994,228.963"/>
  <polygon points="244.089,263.637 259.994,228.963 224.261,229.153"/>
  <polygon points="207.430,262.900 244.089,263.637 224.261,229.153"/>
  <polygon points="244.089,263.637 207.430,262.900 225.752,296.155"/>
  <polygon points="265.549,297.176 244.089,263.637 225.752,296.155"/>
  <polygon points="280.108,262.033 244.089,263.637 265.549,297.176"/>
  <polygon points="-94.910,408.675 -109.914,371.055 -136.087,394.515"/>
  <polygon points="-109.914,371.055 -94.910,408.675 -70.615,384.112"/>
  <polygon points="-155.328,228.390 -134.655,195.000 -172.231,195.000"/>
  <polygon points="-267.549,64.254 -228.444,82.126 -234.501,32.818"/>
  <polygon points="-267.549,64.254 -299.844,94.974 -259.177,109.536"/>
  <polygon points="-228.444,82.126 -267.549,64.254 -259.177,109.536"/>
  <polygon points="-228.526,229.051 -209.422,195.000 -246.582,195.000"/>
  <polygon points="-207.813,329.561 -228.291,296.918 -247.237,329.637"/>
  <polygon points="-228.291,296.918 -266.977,297.205 -247.237,329.637"/>
  <polygon points="-228.291,296.918 -246.545,263.360 -266.977,297.205"/>
  <polygon points="-80.474,228.971 -50.000,240.000 -55.729,195.000"/>
  <polygon points="-50.000,240.000 -19.725,195.000 -55.729,195.000"/>
  <polygon points="-50.000,240.000 -0.198,239.551 -19.725,195.000"/>
  <polygon points="-50.000,240.000 -80.474,228.971 -81.140,273.749"/>
  <polygon points="152.107,228.088 188.128,228.799 167.868,195.000"/>
  <polygon points="152.107,228.088 167.868,195.000 130.616,195.000"/>
  <polygon points="115.942,224.652 152.107,228.088 130.616,195.000"/>
  <polygon points="152.107,228.088 115.942,224.652 137.128,260.959"/>
  <polygon points="171.474,262.795 152.107,228.088 137.128,260.959"/>
  <polygon points="188.128,228.799 152.107,228.088 171.474,262.795"/>
  <polygon points="-290.912,137.840 -332.105,125.661 -323.031,166.487"/>
  <polygon points="-332.105,125.661 -290.912,137.840 -299.844,94.974"/>
  <polygon points="-332.105,125.661 -364.832,156.792 -323.031,166.487"/>
  <polygon points="-193.243,430.000 -208.950,395.267 -227.272,430.000"/>
  <polygon points="-172.139,394.790 -193.243,430.000 -160.000,430.000"/>
  <polygon points="-208.950,395.267 -193.243,430.000 -172.139,394.790"/>
  <polygon points="-283.518,395.987 -321.778,393.355 -295.000,430.000"/>
  <polygon points="-265.789,362.340 -283.518,395.987 -246.063,395.416"/>
  <polygon points="-283.518,395.987 -265.789,362.340 -304.084,363.734"/>
  <polygon points="-321.778,393.355 -283.518,395.987 -304.084,363.734"/>
  <polygon points="-283.518,395.987 -295.000,430.000 -261.312,430.000"/>
  <polygon points="-283.518,395.987 -261.312,430.000 -246.063,395.416"/>
  <polygon points="-155.328,228.390 -118.604,225.057 -134.655,195.000"/>
  <polygon points="-134.655,195.000 -118.604,225.057 -94.511,195.000"/>
  <polygon points="-118.604,225.057 -80.474,228.971 -94.511,195.000"/>
  <polygon points="-118.604,225.057 -155.328,228.390 -139.217,261.515"/>
  <polygon points="-283.455,195.000 -265.422,229.158 -246.582,195.000"/>
  <polygon points="-265.422,229.158 -228.526,229.051 -246.582,195.000"/>
  <polygon points="-246.545,263.360 -265.422,229.158 -282.495,263.551"/>
  <polygon points="-228.526,229.051 -265.422,229.158 -246.545,263.360"/>
  <polygon points="-228.526,229.051 -191.784,229.056 -209.422,195.000"/>
  <polygon points="-209.422,195.000 -191.784,229.056 -172.231,195.000"/>
  <polygon points="-191.784,229.056 -155.328,228.390 -172.231,195.000"/>
  <polygon points="-50.000,265.545 -81.140,273.749 -50.000,293.551"/>
  <polygon points="-50.000,265.545 -50.000,240.000 -81.140,273.749"/>
  <polygon points="-188.265,361.753 -167.705,329.610 -207.813,329.561"/>
  <polygon points="-188.265,361.753 -207.813,329.561 -227.158,362.095"/>
  <polygon points="-208.950,395.267 -188.265,361.753 -227.158,362.095"/>
  <polygon points="-188.265,361.753 -208.950,395.267 -172.139,394.790"/>
  <polygon points="-106.084,255.713 -118.604,225.057 -139.217,261.515"/>
  <polygon points="-80.474,228.971 -106.084,255.713 -81.140,273.749"/>
  <polygon points="-118.604,225.057 -106.084,255.713 -80.474,228.971"/>
  <polygon points="-320.077,195.000 -302.506,227.994 -283.455,195.000"/>
  <polygon points="-302.506,227.994 -265.422,229.158 -283.455,195.000"/>
  <polygon points="-302.506,227.994 -320.077,195.000 -341.079,231.876"/>
  <polygon points="-316.120,261.196 -302.506,227.994 -341.079,231.876"/>
  <polygon points="-302.506,227.994 -316.120,261.196 -282.495,263.551"/>
  <polygon points="-265.422,229.158 -302.506,227.994 -282.495,263.551"/>
  <polygon points="-173.886,263.420 -151.828,297.673 -139.217,261.515"/>
  <polygon points="-155.328,228.390 -173.886,263.420 -139.217,261.515"/>
  <polygon points="-191.784,229.056 -173.886,263.420 -155.328,228.390"/>
  <polygon points="-86.521,310.932 -50.000,320.000 -50.000,293.551"/>
  <polygon points="-81.140,273.749 -86.521,310.932 -50.000,293.551"/>
  <polygon points="-151.828,297.673 -116.382,292.542 -139.217,261.515"/>
  <polygon points="-116.382,292.542 -106.084,255.713 -139.217,261.515"/>
  <polygon points="-106.084,255.713 -116.382,292.542 -81.140,273.749"/>
  <polygon points="-116.382,292.542 -86.521,310.932 -81.140,273.749"/>
  <polygon points="-188.265,361.753 -148.687,360.887 -167.705,329.610"/>
  <polygon points="-109.914,371.055 -148.687,360.887 -136.087,394.515"/>
  <polygon points="-148.687,360.887 -172.139,394.790 -136.087,394.515"/>
  <polygon points="-148.687,360.887 -188.265,361.753 -172.139,394.790"/>
  <polygon points="-228.291,296.918 -210.050,263.274 -246.545,263.360"/>
  <polygon points="-210.050,263.274 -228.526,229.051 -246.545,263.360"/>
  <polygon points="-210.050,263.274 -191.784,229.056 -228.526,229.051"/>
  <polygon points="-210.050,263.274 -173.886,263.420 -191.784,229.056"/>
  <polygon points="-189.924,297.097 -228.291,296.918 -207.813,329.561"/>
  <polygon points="-173.886,263.420 -189.924,297.097 -151.828,297.673"/>
  <polygon points="-189.924,297.097 -210.050,263.274 -228.291,296.918"/>
  <polygon points="-210.050,263.274 -189.924,297.097 -173.886,263.420"/>
  <polygon points="-167.705,329.610 -189.924,297.097 -207.813,329.561"/>
  <polygon points="-151.828,297.673 -189.924,297.097 -167.705,329.610"/>
  <polygon points="-116.382,292.542 -125.317,330.458 -86.521,310.932"/>
  <polygon points="-125.317,330.458 -148.687,360.887 -109.914,371.055"/>
  <polygon points="-125.317,330.458 -116.382,292.542 -151.828,297.673"/>
  <polygon points="-125.317,330.458 -151.828,297.673 -167.705,329.610"/>
  <polygon points="-148.687,360.887 -125.317,330.458 -167.705,329.610"/>
  <polygon points="-88.394,344.946 -125.317,330.458 -109.914,371.055"/>
  <polygon points="-125.317,330.458 -88.394,344.946 -86.521,310.932"/>
  <polygon points="-55.246,353.564 -88.394,344.946 -70.615,384.112"/>
  <polygon points="-88.394,344.946 -109.914,371.055 -70.615,384.112"/>
  <polygon points="-88.394,344.946 -55.246,353.564 -50.000,320.000"/>
  <polygon points="-86.521,310.932 -88.394,344.946 -50.000,320.000"/>
</svg>
